<mxfile host="app.diagrams.net" modified="2024-01-07T08:00:23.286Z" agent="Mozilla/5.0 (Windows NT 10.0; Win64; x64) AppleWebKit/537.36 (KHTML, like Gecko) Chrome/120.0.0.0 Safari/537.36 Edg/120.0.0.0" etag="fI5Ny1dbZkoo6YZfxNvf" version="22.1.17" type="device">
  <diagram name="Page-1" id="OixippFMgBw7Rx4a8h2G">
    <mxGraphModel dx="2435" dy="2105" grid="1" gridSize="10" guides="1" tooltips="1" connect="1" arrows="1" fold="1" page="1" pageScale="1" pageWidth="850" pageHeight="1100" math="0" shadow="0">
      <root>
        <mxCell id="0" />
        <mxCell id="1" parent="0" />
        <mxCell id="HaO3JPQ0QaqLhelDq9XG-48" value="" style="rounded=0;whiteSpace=wrap;html=1;" vertex="1" parent="1">
          <mxGeometry x="-120" y="-70" width="1440" height="760" as="geometry" />
        </mxCell>
        <mxCell id="HaO3JPQ0QaqLhelDq9XG-46" value="" style="rounded=0;whiteSpace=wrap;html=1;" vertex="1" parent="1">
          <mxGeometry x="-30" y="40" width="1260" height="540" as="geometry" />
        </mxCell>
        <mxCell id="HaO3JPQ0QaqLhelDq9XG-45" value="&lt;p style=&quot;line-height: 50%; font-size: 14px;&quot;&gt;&lt;font style=&quot;font-size: 14px;&quot;&gt;Data&lt;/font&gt;&lt;/p&gt;&lt;p style=&quot;line-height: 50%; font-size: 14px;&quot;&gt;&lt;span style=&quot;background-color: initial;&quot;&gt;&lt;font style=&quot;font-size: 14px;&quot;&gt;Response&lt;/font&gt;&lt;/span&gt;&lt;/p&gt;" style="rounded=0;whiteSpace=wrap;html=1;strokeColor=none;fontSize=15;spacingTop=0;spacing=2;" vertex="1" parent="1">
          <mxGeometry x="910" y="370" width="90" height="150" as="geometry" />
        </mxCell>
        <mxCell id="HaO3JPQ0QaqLhelDq9XG-44" value="&lt;p style=&quot;line-height: 50%; font-size: 14px;&quot;&gt;&lt;font style=&quot;font-size: 14px;&quot;&gt;Data&lt;/font&gt;&lt;/p&gt;&lt;p style=&quot;line-height: 50%; font-size: 14px;&quot;&gt;&lt;span style=&quot;background-color: initial;&quot;&gt;&lt;font style=&quot;font-size: 14px;&quot;&gt;Request&lt;/font&gt;&lt;/span&gt;&lt;/p&gt;" style="rounded=0;whiteSpace=wrap;html=1;strokeColor=none;fontSize=15;spacingTop=0;" vertex="1" parent="1">
          <mxGeometry x="910" y="180" width="90" height="150" as="geometry" />
        </mxCell>
        <mxCell id="HaO3JPQ0QaqLhelDq9XG-41" value="&lt;p style=&quot;line-height: 150%;&quot;&gt;&lt;font style=&quot;font-size: 14px;&quot;&gt;HTTP&lt;br style=&quot;&quot;&gt;Response&lt;/font&gt;&lt;/p&gt;" style="rounded=0;whiteSpace=wrap;html=1;strokeColor=none;fontSize=15;" vertex="1" parent="1">
          <mxGeometry x="400" y="390" width="90" height="110" as="geometry" />
        </mxCell>
        <mxCell id="HaO3JPQ0QaqLhelDq9XG-37" value="&lt;p style=&quot;line-height: 150%; font-size: 14px;&quot;&gt;HTTP&lt;br style=&quot;&quot;&gt;Request&lt;/p&gt;" style="rounded=0;whiteSpace=wrap;html=1;strokeColor=none;fontSize=15;spacingTop=0;" vertex="1" parent="1">
          <mxGeometry x="400" y="180" width="90" height="150" as="geometry" />
        </mxCell>
        <mxCell id="HaO3JPQ0QaqLhelDq9XG-1" value="&lt;font style=&quot;font-size: 20px;&quot;&gt;Client Tier&lt;/font&gt;" style="swimlane;whiteSpace=wrap;html=1;fontSize=20;" vertex="1" parent="1">
          <mxGeometry x="10" y="160" width="380" height="380" as="geometry" />
        </mxCell>
        <mxCell id="HaO3JPQ0QaqLhelDq9XG-8" value="" style="rounded=1;whiteSpace=wrap;html=1;strokeColor=default;" vertex="1" parent="HaO3JPQ0QaqLhelDq9XG-1">
          <mxGeometry x="140" y="30" width="230" height="270" as="geometry" />
        </mxCell>
        <mxCell id="HaO3JPQ0QaqLhelDq9XG-9" value="&lt;font style=&quot;font-size: 18px;&quot;&gt;React Frontend Application&lt;/font&gt;" style="rounded=0;whiteSpace=wrap;html=1;strokeColor=none;fontStyle=1;fontSize=18;" vertex="1" parent="HaO3JPQ0QaqLhelDq9XG-1">
          <mxGeometry x="150" y="40" width="210" height="30" as="geometry" />
        </mxCell>
        <mxCell id="HaO3JPQ0QaqLhelDq9XG-10" value="Router" style="rounded=1;whiteSpace=wrap;html=1;fontSize=16;" vertex="1" parent="HaO3JPQ0QaqLhelDq9XG-1">
          <mxGeometry x="150" y="80" width="140" height="60" as="geometry" />
        </mxCell>
        <mxCell id="HaO3JPQ0QaqLhelDq9XG-11" value="Components" style="rounded=1;whiteSpace=wrap;html=1;fontSize=16;" vertex="1" parent="HaO3JPQ0QaqLhelDq9XG-1">
          <mxGeometry x="150" y="150" width="140" height="60" as="geometry" />
        </mxCell>
        <mxCell id="HaO3JPQ0QaqLhelDq9XG-12" value="Services" style="rounded=1;whiteSpace=wrap;html=1;fontSize=16;" vertex="1" parent="HaO3JPQ0QaqLhelDq9XG-1">
          <mxGeometry x="150" y="220" width="140" height="60" as="geometry" />
        </mxCell>
        <mxCell id="HaO3JPQ0QaqLhelDq9XG-13" value="Axios HTTP Library" style="rounded=1;whiteSpace=wrap;html=1;fontSize=16;" vertex="1" parent="HaO3JPQ0QaqLhelDq9XG-1">
          <mxGeometry x="300" y="80" width="60" height="200" as="geometry" />
        </mxCell>
        <mxCell id="HaO3JPQ0QaqLhelDq9XG-15" value="HTML&lt;br style=&quot;font-size: 16px;&quot;&gt;CSS&lt;br style=&quot;font-size: 16px;&quot;&gt;Javascript" style="rounded=1;whiteSpace=wrap;html=1;fontSize=16;" vertex="1" parent="HaO3JPQ0QaqLhelDq9XG-1">
          <mxGeometry x="10" y="30" width="120" height="130" as="geometry" />
        </mxCell>
        <mxCell id="HaO3JPQ0QaqLhelDq9XG-16" value="Browser" style="rounded=1;whiteSpace=wrap;html=1;fontSize=16;" vertex="1" parent="HaO3JPQ0QaqLhelDq9XG-1">
          <mxGeometry x="10" y="170" width="120" height="130" as="geometry" />
        </mxCell>
        <mxCell id="HaO3JPQ0QaqLhelDq9XG-24" value="&lt;font style=&quot;font-size: 18px;&quot;&gt;Client Machine&lt;/font&gt;" style="rounded=1;whiteSpace=wrap;html=1;fontStyle=1;fontSize=18;" vertex="1" parent="HaO3JPQ0QaqLhelDq9XG-1">
          <mxGeometry x="10" y="310" width="360" height="60" as="geometry" />
        </mxCell>
        <mxCell id="HaO3JPQ0QaqLhelDq9XG-17" value="&lt;font style=&quot;font-size: 20px;&quot;&gt;Business Logic Tier&lt;/font&gt;" style="swimlane;whiteSpace=wrap;html=1;fontSize=20;" vertex="1" parent="1">
          <mxGeometry x="500" y="160" width="400" height="380" as="geometry" />
        </mxCell>
        <mxCell id="HaO3JPQ0QaqLhelDq9XG-25" value="&lt;font style=&quot;font-size: 18px;&quot;&gt;Application Server&lt;/font&gt;" style="rounded=1;whiteSpace=wrap;html=1;fontStyle=1;fontSize=18;" vertex="1" parent="HaO3JPQ0QaqLhelDq9XG-17">
          <mxGeometry x="15" y="310" width="375" height="60" as="geometry" />
        </mxCell>
        <mxCell id="HaO3JPQ0QaqLhelDq9XG-28" value="" style="rounded=1;whiteSpace=wrap;html=1;" vertex="1" parent="HaO3JPQ0QaqLhelDq9XG-17">
          <mxGeometry x="20" y="30" width="370" height="270" as="geometry" />
        </mxCell>
        <mxCell id="HaO3JPQ0QaqLhelDq9XG-18" value="Spring&lt;br style=&quot;font-size: 16px;&quot;&gt;REST&lt;br style=&quot;font-size: 16px;&quot;&gt;Controller" style="rounded=1;whiteSpace=wrap;html=1;fontSize=16;" vertex="1" parent="HaO3JPQ0QaqLhelDq9XG-17">
          <mxGeometry x="30" y="80" width="75" height="200" as="geometry" />
        </mxCell>
        <mxCell id="HaO3JPQ0QaqLhelDq9XG-19" value="Service" style="rounded=1;whiteSpace=wrap;html=1;fontSize=16;" vertex="1" parent="HaO3JPQ0QaqLhelDq9XG-17">
          <mxGeometry x="120" y="80" width="75" height="200" as="geometry" />
        </mxCell>
        <mxCell id="HaO3JPQ0QaqLhelDq9XG-21" value="DAO&lt;br&gt;Layer" style="rounded=1;whiteSpace=wrap;html=1;fontSize=16;" vertex="1" parent="HaO3JPQ0QaqLhelDq9XG-17">
          <mxGeometry x="210" y="80" width="75" height="200" as="geometry" />
        </mxCell>
        <mxCell id="HaO3JPQ0QaqLhelDq9XG-22" value="Model" style="rounded=1;whiteSpace=wrap;html=1;fontSize=16;" vertex="1" parent="HaO3JPQ0QaqLhelDq9XG-17">
          <mxGeometry x="300" y="80" width="75" height="200" as="geometry" />
        </mxCell>
        <mxCell id="HaO3JPQ0QaqLhelDq9XG-29" value="&lt;font style=&quot;font-size: 18px;&quot;&gt;Spring Boot Backend Application&lt;/font&gt;" style="rounded=0;whiteSpace=wrap;html=1;strokeColor=none;fontStyle=1;fontSize=18;" vertex="1" parent="HaO3JPQ0QaqLhelDq9XG-17">
          <mxGeometry x="60" y="40" width="290" height="30" as="geometry" />
        </mxCell>
        <mxCell id="HaO3JPQ0QaqLhelDq9XG-23" value="&lt;font style=&quot;font-size: 20px;&quot;&gt;Database Tier&lt;/font&gt;" style="swimlane;whiteSpace=wrap;html=1;fontSize=20;" vertex="1" parent="1">
          <mxGeometry x="1010" y="160" width="180" height="380" as="geometry" />
        </mxCell>
        <mxCell id="HaO3JPQ0QaqLhelDq9XG-26" value="&lt;font style=&quot;font-size: 18px;&quot;&gt;Database Server&lt;/font&gt;" style="rounded=1;whiteSpace=wrap;html=1;fontStyle=1;fontSize=18;" vertex="1" parent="HaO3JPQ0QaqLhelDq9XG-23">
          <mxGeometry x="10" y="310" width="160" height="60" as="geometry" />
        </mxCell>
        <mxCell id="HaO3JPQ0QaqLhelDq9XG-27" value="&lt;font style=&quot;font-size: 18px;&quot;&gt;MySQL&lt;br style=&quot;font-size: 18px;&quot;&gt;Database&lt;/font&gt;" style="strokeWidth=1;html=1;shape=mxgraph.flowchart.database;whiteSpace=wrap;fontStyle=1;fontSize=18;" vertex="1" parent="HaO3JPQ0QaqLhelDq9XG-23">
          <mxGeometry x="17.5" y="70" width="145" height="200" as="geometry" />
        </mxCell>
        <mxCell id="HaO3JPQ0QaqLhelDq9XG-32" value="" style="endArrow=classic;html=1;rounded=0;strokeWidth=2;exitX=1;exitY=0.25;exitDx=0;exitDy=0;entryX=0;entryY=0.25;entryDx=0;entryDy=0;" edge="1" parent="1" source="HaO3JPQ0QaqLhelDq9XG-1" target="HaO3JPQ0QaqLhelDq9XG-17">
          <mxGeometry width="50" height="50" relative="1" as="geometry">
            <mxPoint x="390" y="290" as="sourcePoint" />
            <mxPoint x="490" y="290" as="targetPoint" />
          </mxGeometry>
        </mxCell>
        <mxCell id="HaO3JPQ0QaqLhelDq9XG-34" value="" style="endArrow=classic;html=1;rounded=0;strokeWidth=2;entryX=0;entryY=0.25;entryDx=0;entryDy=0;exitX=1;exitY=0.25;exitDx=0;exitDy=0;" edge="1" parent="1" source="HaO3JPQ0QaqLhelDq9XG-17" target="HaO3JPQ0QaqLhelDq9XG-23">
          <mxGeometry width="50" height="50" relative="1" as="geometry">
            <mxPoint x="920" y="320" as="sourcePoint" />
            <mxPoint x="970" y="290" as="targetPoint" />
          </mxGeometry>
        </mxCell>
        <mxCell id="HaO3JPQ0QaqLhelDq9XG-35" value="" style="endArrow=classic;html=1;rounded=0;strokeWidth=2;exitX=0;exitY=0.75;exitDx=0;exitDy=0;entryX=1;entryY=0.75;entryDx=0;entryDy=0;" edge="1" parent="1" source="HaO3JPQ0QaqLhelDq9XG-17" target="HaO3JPQ0QaqLhelDq9XG-1">
          <mxGeometry width="50" height="50" relative="1" as="geometry">
            <mxPoint x="400" y="590" as="sourcePoint" />
            <mxPoint x="500" y="590" as="targetPoint" />
          </mxGeometry>
        </mxCell>
        <mxCell id="HaO3JPQ0QaqLhelDq9XG-36" value="" style="endArrow=classic;html=1;rounded=0;strokeWidth=2;exitX=0;exitY=0.75;exitDx=0;exitDy=0;entryX=1;entryY=0.75;entryDx=0;entryDy=0;" edge="1" parent="1" source="HaO3JPQ0QaqLhelDq9XG-23" target="HaO3JPQ0QaqLhelDq9XG-17">
          <mxGeometry width="50" height="50" relative="1" as="geometry">
            <mxPoint x="1000" y="590" as="sourcePoint" />
            <mxPoint x="900" y="590" as="targetPoint" />
          </mxGeometry>
        </mxCell>
        <mxCell id="HaO3JPQ0QaqLhelDq9XG-47" value="&lt;font style=&quot;font-size: 20px;&quot;&gt;SYSTEM ARCHITECTURE DIAGRAM&lt;/font&gt;" style="rounded=0;whiteSpace=wrap;html=1;strokeWidth=0.5;" vertex="1" parent="1">
          <mxGeometry x="10" y="80" width="1180" height="60" as="geometry" />
        </mxCell>
      </root>
    </mxGraphModel>
  </diagram>
</mxfile>
